# xmcd
#
# Track frame offsets:
# 150
# 15168
# 28740
# 46503
# 72365
# 91195
# 106273
# 118400
# 133350
# 144785
#
# Disc length: 2190 seconds
#
#
# Revision: 0
# Processed by: cddbd v1.5.1PL0 Copyright (c) Steve Scherf et al.
# Submitted via: FreeRIP 2.941 
#
DISCID=7d088c0a
DTITLE=Luis Armstrong - What a wonderful world
DYEAR=1900
DGENRE=
TTITLE0=What a Wonderful world
TTITLE1=Everybody's talkin'
TTITLE2=Boy from new orleans
TTITLE3=We shall overcome
TTITLE4=The creator has a master plan
TTITLE5=Mood indigo
TTITLE6=This black cat has 9 lives
TTITLE7=My one and only love
TTITLE8=His father wore long hair
TTITLE9=Give peace a chance
EXTD=
EXTT0=
EXTT1=
EXTT2=
EXTT3=
EXTT4=
EXTT5=
EXTT6=
EXTT7=
EXTT8=
EXTT9=
PLAYORDER=
